<svg height="511pt" viewBox="-72 0 511 511.99995" width="511pt" xmlns="http://www.w3.org/2000/svg"><path d="m135.039062 75.132812c-1.53125-6.175781-1.929687-12.375-1.195312-18.421874 2.476562-20.15625 22.644531-45.707032 44.933594-48.445313 1.535156-.183594 3.082031-.273437 4.601562-.273437 19.917969 0 42.890625 14.949218 51.210938 33.324218.546875 1.199219 1.050781 2.449219 1.503906 3.710938l.679688 1.894531-1.898438.667969c-4.933594 1.734375-10.191406 2.613281-15.625 2.613281-17.082031 0-33.773438-8.875-42.527344-22.605469-.554687-.871094-1.5-1.390625-2.53125-1.390625-.195312 0-.390625.019531-.582031.054688-1.203125.238281-2.15625 1.210937-2.371094 2.417969-3.484375 19.664062-15.914062 37.492187-33.242187 47.695312l-2.3125 1.359375zm0 0" fill="#935252"/><path d="m188.304688 278.027344c-15.980469 0-32.164063-.320313-48.105469-.949219l-1.992188-.078125.074219-1.992188c.796875-21.820312 1.808594-43.835937 3-65.4375.046875-.800781-.21875-1.566406-.753906-2.164062s-1.269532-.953125-2.074219-1l-.160156-.003906c-1.59375 0-2.910157 1.246094-2.996094 2.835937-1.183594 21.460938-2.195313 43.492188-3.007813 65.484375l-.078124 2.019532-2.015626-.09375c-5.1875-.246094-9.738281-.488282-13.90625-.742188l-1.765624-.105469-.109376-1.765625c-1.109374-17.746094-1.972656-35.085937-.375-52.179687 1.9375-20.839844 7.4375-38.582031 16.347657-52.730469 6.15625-9.773438 14.253906-18.027344 23.417969-23.878906l2.714843-1.734375.347657 3.203125c.746093 6.859375 2.957031 12.839844 6.574218 17.773437 5.097656 6.960938 13.207032 11.285157 21.167969 11.285157.652344 0 1.320313-.035157 2.042969-.101563 7.425781-.714844 14.578125-5.1875 19.617187-12.269531 4.433594-6.226563 6.582031-13.371094 7.8125-18.203125l.648438-2.546875 2.28125 1.304687c21.277343 12.171875 36.804687 37.316407 42.59375 68.996094 3.335937 18.273437 3.273437 37.246094 3.214843 55.597656 0 2.976563-.226562 5.050781-1.355468 6.164063-1.023438 1.007812-2.894532 1.296875-5.582032 1.433594-5.496093.308593-11.09375.582031-16.628906.8125l-2.070312.085937-.011719-2.074219c-.128906-24.730468-.125-47.566406.007813-69.8125.007812-1.652344-1.332032-3.007812-2.984376-3.019531-1.664062 0-3.007812 1.335937-3.015624 2.976563-.132813 22.378906-.136719 45.34375-.007813 70.210937l.007813 1.945313-1.941407.066406c-13.550781.457031-27.320312.6875-40.933593.6875zm0 0" fill="#5b8baf"/><path d="m171.316406 448.59375c-11.554687 0-22.777344-.113281-33.359375-.335938l-1.9375-.039062-.019531-1.9375c-.5625-53.449219.085938-107.707031 1.917969-161.269531l.070312-2.007813 2.007813.078125c16.050781.628907 32.28125.949219 48.234375.949219 13.59375 0 27.367187-.234375 40.929687-.691406l2.054688-.066406.015625 2.054687c.351562 53.6875 1.367187 107.542969 3.019531 160.070313l.0625 1.984374-1.988281.074219c-14.296875.539063-29.101563.890625-44.003907 1.042969l-2.027343.019531.398437-118.175781c.003906-.804688-.308594-1.558594-.875-2.128906-.5625-.5625-1.3125-.875-2.105468-.875-1.667969 0-3.015626 1.339844-3.019532 2.988281l-.398437 118.246094-1.984375.003906c-2.332032.011719-4.664063.015625-6.992188.015625zm0 0" fill="#5b8baf"/><path d="m185.859375 115.816406c-8.179687 0-16.179687-1.835937-23.132813-5.304687-10.40625-5.203125-18.996093-14.242188-24.191406-25.449219l-.785156-1.6875 1.628906-.902344c16.460938-9.125 29.320313-24.75 35.28125-42.875l1.035156-3.148437 2.300782 2.382812c10.5 10.855469 25.996094 17.335938 41.453125 17.335938 5.722656 0 11.277343-.871094 16.503906-2.597657l2.28125-.75.328125 2.378907c2.335938 16.996093-3.589844 34.65625-15.464844 46.082031-9.59375 9.238281-23.164062 14.535156-37.234375 14.535156-.003906 0-.003906 0-.003906 0zm0 0" fill="#ffdac4"/><path d="m184.558594 169.773438c-6.042969 0-12.28125-3.382813-16.28125-8.828126-3.605469-4.921874-5.617188-11.707031-5.667969-19.109374l-.011719-1.347657 1.242188-.515625c3.03125-1.257812 6.125-2.253906 9.191406-2.960937 4.097656-.945313 8.382812-1.425781 12.738281-1.425781 5.765625 0 11.601563.832031 17.347657 2.472656 1.417968.410156 2.882812.890625 4.355468 1.4375l1.660156.613281-.40625 1.722656c-1.28125 5.414063-3.273437 12.363281-7.347656 18.089844-3.96875 5.578125-9.6875 9.234375-15.308594 9.78125-.496093.046875-1.007812.070313-1.511718.070313zm0 0" fill="#ffdac4"/><path d="m186.601562 504.003906c-62.835937 0-112.335937-8.636718-155.777343-27.183594-14.710938-6.277343-22.429688-14.164062-22.324219-22.804687.097656-8.222656 7.109375-15.617187 20.835938-21.980469 30.523437-14.175781 64.566406-21.921875 98.445312-22.394531l2.023438-.027344.003906 2.023438c.007812 5.769531.027344 11.523437.058594 17.285156l.011718 2.078125-2.078125-.070312c-1.378906-.046876-2.773437-.070313-4.152343-.070313-18.144532 0-36.351563 4.121094-52.65625 11.925781-7.609376 3.640625-11.535157 8.199219-11.675782 13.558594-.15625 5.835938 4.230469 10.894531 12.355469 14.246094 11.625 4.796875 24.335937 6.628906 35.339844 7.972656 21.542969 2.632812 42.644531 3.964844 62.71875 3.964844 39.429687 0 76.199219-5.09375 109.289062-15.140625 3.96875-1.210938 7.515625-2.414063 10.660157-4.832031 3.960937-3.039063 6.175781-7.5625 5.777343-11.8125-.699219-7.457032-8.4375-11.476563-10.980469-12.800782-13.125-6.878906-27.9375-10.597656-42.839843-10.753906l-1.921875-.019531-.054688-1.921875c-.101562-3.480469-.191406-6.964844-.28125-10.453125l-.195312-7.4375 2.144531.097656c33.957031 1.503906 67.628906 10.863281 97.378906 27.070313 6.277344 3.421874 11.25 6.585937 15.105469 10.902343 4.226562 4.75 6.363281 10.597657 5.710938 15.648438-1.039063 8.074219-8.578126 14.964843-22.402344 20.484375-42.691406 17.089844-89.117188 20.722656-124.792969 21.980468-8.785156.308594-17.441406.464844-25.726563.464844zm0 0" fill="#d34242"/><g fill="#231f20"><path d="m159.152344 117.664062c8.234375 4.113282 17.40625 6.097657 26.613281 6.097657 15.730469 0 31.546875-5.804688 42.875-16.710938 17.960937-17.292969 23.53125-46.328125 13.242187-69.039062-10.59375-23.378907-39.929687-40.632813-64.074218-37.683594-26.207032 3.207031-49.015625 31.894531-51.902344 55.402344-3.039062 24.746093 10.945312 50.792969 33.246094 61.933593zm62.554687-17.820312c-15.015625 14.457031-39.441406 18.1875-58.085937 8.875-10.277344-5.136719-18.433594-14.0625-23.265625-24.503906 16.953125-9.394532 30.148437-25.566406 36.207031-43.996094 15.070312 15.578125 39.320312 22.070312 60.015625 15.253906 2.195313 15.992188-3.210937 33.144532-14.871094 44.371094zm-85.875-42.894531c2.386719-19.441407 21.773438-44.070313 43.191407-46.695313 1.429687-.175781 2.882812-.257812 4.359374-.257812 19.011719 0 41.230469 14.128906 49.390626 32.144531.53125 1.167969 1.007812 2.359375 1.4375 3.5625-20.03125 7.050781-44.371094-1.242187-55.800782-19.183594-1.105468-1.742187-3.167968-2.621093-5.191406-2.21875-2.019531.398438-3.589844 2.003907-3.949219 4.03125-3.375 19.058594-15.613281 36.492188-32.289062 46.320313-1.433594-5.78125-1.875-11.785156-1.148438-17.703125zm0 0"/><path d="m359.777344 440.101562c-4.894532-5.488281-11.179688-9.300781-17.242188-12.601562-31.101562-16.945312-66.15625-26.609375-101.546875-28.066406-.921875-38.085938-1.511719-76.308594-1.761719-114.460938 5.710938-.238281 11.414063-.515625 17.109376-.835937 2.761718-.152344 7.378906-.410157 10.742187-3.726563 3.71875-3.65625 3.734375-8.980468 3.742187-11.835937.0625-18.722657.125-38.078125-3.347656-57.0625-7.652344-41.878907-30.890625-72.214844-62.160156-81.144531-11.429688-3.265626-23.214844-3.664063-34.082031-1.148438-18.722657 4.328125-36.074219 17.320312-47.617188 35.648438-9.578125 15.210937-15.480469 34.136718-17.539062 56.246093-1.808594 19.394531-.566407 38.9375.632812 57.835938.160157 2.515625 2.164063 4.515625 4.675781 4.671875 6.167969.390625 12.351563.730468 18.539063 1.023437-1.332031 38.972657-2.03125 78.050781-2.105469 116.992188-34.972656.464843-70.113281 8.410156-101.847656 23.140625-16.753906 7.777344-25.324219 17.578125-25.46875 29.136718-.105469 8.46875 4.527344 20.59375 27.183594 30.265626 44.144531 18.839843 95.132812 27.820312 158.933594 27.820312 8.4375 0 17.097656-.15625 25.996093-.46875 36.300781-1.273438 83.601563-4.984375 127.484375-22.542969 16.949219-6.78125 25.898438-15.574219 27.355469-26.886719.960937-7.4375-1.839844-15.457031-7.675781-22zm-231.71875 11.113282c.03125 2.691406 2.191406 4.875 4.882812 4.9375 12.710938.300781 25.488282.449218 38.28125.449218 22.164063 0 44.375-.449218 66.386719-1.339843 2.742187-.113281 4.882813-2.414063 4.792969-5.15625-.160156-4.964844-.296875-9.941407-.445313-14.910157 13.492188.210938 26.851563 3.570313 38.808594 9.832032 4.210937 2.203125 6.53125 4.4375 6.722656 6.46875.140625 1.484375-.933593 3.378906-2.671875 4.710937-2.109375 1.617188-4.925781 2.550781-8.121094 3.523438-49.089843 14.910156-105.855468 18.574219-168.71875 10.894531-10.476562-1.277344-22.550781-3.015625-33.253906-7.433594-3.625-1.496094-7.476562-4.027344-7.410156-6.644531.054688-2.042969 2.585938-4.371094 7.128906-6.546875 16.628906-7.960938 35.082032-11.761719 53.496094-11.058594.035156 4.09375.070312 8.1875.121094 12.273438zm45.425781-312.253906c9.222656-2.132813 19.277344-1.777344 29.082031 1.019531 1.425782.410156 2.828125.882812 4.214844 1.390625-1.257812 5.332031-3.199219 12.007812-7.03125 17.386718-3.644531 5.121094-8.828125 8.464844-13.867188 8.949219-5.765624.554688-12.046874-2.5625-15.992187-7.949219-3.390625-4.625-5.226563-10.953124-5.277344-17.941406 2.902344-1.203125 5.867188-2.164062 8.871094-2.855468zm-57.078125 134.949218c-1.070312-17.132812-1.972656-34.726562-.375-51.871094 1.914062-20.53125 7.3125-37.972656 16.046875-51.84375 6.089844-9.679687 13.976563-17.632812 22.800781-23.265624.640625 5.898437 2.496094 12.671874 6.945313 18.742187 5.507812 7.511719 14.253906 12.097656 22.785156 12.097656.746094 0 1.492187-.035156 2.230469-.105469 8-.769531 15.675781-5.546874 21.058594-13.105468 4.316406-6.066406 6.632812-13.015625 8.125-18.871094 20.699218 11.84375 35.847656 36.066406 41.613281 67.621094 3.304687 18.078125 3.242187 36.964844 3.183593 55.234375-.003906 1.199219-.011718 4.011719-.757812 4.746093-.671875.664063-3.113281.800782-4.285156.863282-5.527344.3125-11.066406.578125-16.613282.8125-.117187-23.320313-.125-46.605469.011719-69.792969.015625-2.761719-2.210937-5.015625-4.96875-5.03125-.011719 0-.019531 0-.03125 0-2.746093 0-4.984375 2.21875-5 4.972656-.136719 23.332031-.128906 46.765625-.007812 70.230469-29.582031.996094-59.316407.90625-88.894531-.257812.808593-21.859376 1.808593-43.671876 3.007812-65.398438.15625-2.757812-1.957031-5.117188-4.714844-5.269531-2.757812-.15625-5.117187 1.957031-5.269531 4.714843-1.203125 21.765626-2.203125 43.621094-3.015625 65.515626-4.628906-.222657-9.253906-.464844-13.875-.738282zm71.820312 12.121094c13.679688 0 27.355469-.230469 41-.6875.355469 53.421875 1.355469 107.003906 3.023438 160.117188-14.59375.546874-29.265625.890624-43.945312 1.042968l.386718-116.152344c.007813-2.761718-2.222656-5.007812-4.984375-5.015624-.007812 0-.011719 0-.015625 0-2.753906 0-4.992187 2.226562-5 4.984374l-.386718 116.253907c-13.460938.058593-26.910157-.039063-40.300782-.3125-.566406-53.496094.074219-107.445313 1.914063-161.179688 16.070312.632813 32.191406.949219 48.308593.949219zm169.308594 174.792969c-.9375 7.289062-8.054687 13.640625-21.152344 18.878906-42.445312 16.984375-88.628906 20.589844-124.121093 21.832031-74.667969 2.621094-132.070313-5.816406-180.652344-26.550781-9.695313-4.140625-21.230469-11.132813-21.109375-20.945313.09375-7.378906 6.714844-14.175781 19.679688-20.191406 30.421874-14.121094 64.046874-21.738281 97.632812-22.207031.003906 5.765625.023438 11.53125.058594 17.292969-19.882813-.6875-39.792969 3.453125-57.746094 12.046875-8.335938 3.996093-12.644531 9.144531-12.804688 15.304687-.175781 6.726563 4.652344 12.460938 13.589844 16.152344 11.859375 4.894531 24.726563 6.753906 35.855469 8.113281 21.707031 2.652344 42.714844 3.976563 62.96875 3.976563 39.695313 0 76.476563-5.089844 109.871094-15.230469 3.992187-1.214844 7.863281-2.519531 11.296875-5.15625 4.5-3.449219 7.007812-8.652344 6.542968-13.578125-.792968-8.511719-9.257812-12.941406-12.042968-14.398438-13.472656-7.050781-28.542969-10.8125-43.742188-10.972656-.148437-5.242187-.285156-10.488281-.417968-15.738281 33.636718 1.488281 66.941406 10.71875 96.507812 26.828125 6.09375 3.316406 10.902344 6.367188 14.566406 10.476562 3.847656 4.316407 5.796875 9.570313 5.21875 14.066407zm0 0"/></g></svg>